# xmcd
#
# Track frame offsets:
#	150
#	15626
#	30600
#	42375
#	63628
#	76478
#	92023
#	103920
#	118584
#	130109
#	148085
#	159543
#	172917
#	186561
#	201095
#	214791
#
# Disc length: 3093 seconds
#
# Revision: 0
# Processed by: cddbd v1.5.2PL0 Copyright (c) Steve Scherf et al.
# Submitted via: EasyCDDAExtractor 16.0.6.1
#
DISCID=e50c1310
DTITLE=Συλλογικός δίσκος - Όσο αξίζεις εσύ-Απ. Καλδάρας
DYEAR=2012
DGENRE=Λαϊκή
TTITLE0=Μπέλλου Σωτηρία - Νύχτωσε χωρίς φεγγάρι
TTITLE1=Αγγελόπουλος Μανώλης - Καλή τύχη
TTITLE2=Ζαγοραίος Σπύρος - Λίγο-λίγο
TTITLE3=Καζαντζίδης Στέλιος - Είμ' ένα κορμί χαμένο [στ. Κώστας Βίρβος]
TTITLE4=Παπαδοπούλου Πίτσα - Αλλοτινές μου εποχές [στ. Ρέα Μανέλη]
TTITLE5=Χριστοδουλόπουλος Μάκης - Μιά στεναχώρια [στ. Κώστας Βίρβος]
TTITLE6=Μενιδιάτης Μιχάλης - Μην περιμένεις πια
TTITLE7=Καζαντζίδης Στέλιος - Στο τραπέζι που τα πίνω [στ. Ευτ. Παπαγιαννοπούλ
TTITLE7=ου]
TTITLE8=Αγγελόπουλος Μανώλης - Όσο αξίζεις εσύ
TTITLE9=Τσαλιγοπούλου Ελένη - Φέρτε μιά κούπα με κρασί [στ. Χαρ. Βασιλειάδης]
TTITLE10=Σακελλαρίου Ρίτα-Λαγούρος Θανάσης - Όταν πέσεις σ' άλλα χέρια [Απ. Κα
TTITLE10=λδάρας/Απ. Λαγούρος]
TTITLE11=Κύπριος Στράτος-Σακελλαρίου Ρίτα - Ποιος σού 'πε δε σ' αγαπώ [στ. Νίκ
TTITLE11=ος Μουρκάκος]
TTITLE12=Αγγελόπουλος Μανώλης - Στα βουνά δεν παν οι πόνοι [στ. Ευτ. Παπαγιανν
TTITLE12=οπούλου]
TTITLE13=Περπινιάδης Βαγγέλης - Μη μού λέτε λόγια [στ. Ευαγγ. Μαράβας]
TTITLE14=Γλυκερία - Μην κάνεις όνειρα 
TTITLE15=Πουλόπουλος Γιάννης - Όποια και νά 'σαι [στ. Γιώργος Σαμολαδάς]
EXTD=
EXTT0=
EXTT1=
EXTT2=
EXTT3=
EXTT4=
EXTT5=
EXTT6=
EXTT7=
EXTT8=
EXTT9=
EXTT10=
EXTT11=
EXTT12=
EXTT13=
EXTT14=
EXTT15=
PLAYORDER=
